<?xml version="1.0" encoding="UTF-8"?><svg xmlns="http://www.w3.org/2000/svg" xmlns:xlink="http://www.w3.org/1999/xlink"><image xlink:href="../Resources/MapaNavarra.svg" width="500" height="500"/><rect x="199.90199999999948" y="25.035999999999945" width="15" height="140" rx="3" ry="3" stroke="black" stroke-width="2" opacity="0.8" fill="green"/><rect x="188.13960000000088" y="149.56240000000003" width="15" height="136.3" rx="3" ry="3" stroke="black" stroke-width="2" opacity="0.8" fill="green"/><rect x="225.74940000000083" y="119.9257" width="15" height="125.1" rx="3" ry="3" stroke="black" stroke-width="2" opacity="0.8" fill="green"/><rect x="306.85919999999953" y="300.9286" width="15" height="124.3" rx="3" ry="3" stroke="black" stroke-width="2" opacity="0.8" fill="green"/><rect x="197.35239000000036" y="93.08374000000003" width="15" height="100" rx="3" ry="3" stroke="black" stroke-width="2" opacity="0.8" fill="green"/><rect x="194.05743000000086" y="82.18869999999993" width="15" height="98.2" rx="3" ry="3" stroke="black" stroke-width="2" opacity="0.8" fill="green"/><rect x="273.0182999999997" y="82.27480000000003" width="15" height="57" rx="3" ry="3" stroke="black" stroke-width="2" opacity="0.8" fill="yellow"/><rect x="273.8086499999995" y="78.19707999999991" width="15" height="51.7" rx="3" ry="3" stroke="black" stroke-width="2" opacity="0.8" fill="yellow"/><rect x="344.4939000000005" y="245.97429999999997" width="15" height="50" rx="3" ry="3" stroke="black" stroke-width="2" opacity="0.8" fill="yellow"/><rect x="351.5315999999991" y="198.33370000000002" width="15" height="46.4" rx="3" ry="3" stroke="black" stroke-width="2" opacity="0.8" fill="yellow"/><rect x="210.48300000000063" y="118.582" width="15" height="40" rx="3" ry="3" stroke="black" stroke-width="2" opacity="0.8" fill="yellow"/><rect x="80.97330000000011" y="177.16089999999997" width="15" height="39.1" rx="3" ry="3" stroke="black" stroke-width="2" opacity="0.8" fill="red"/><rect x="258.54090000000053" y="423.2491" width="15" height="38.1" rx="3" ry="3" stroke="black" stroke-width="2" opacity="0.8" fill="red"/><rect x="195.40529999999944" y="309.28630000000004" width="15" height="33.6" rx="3" ry="3" stroke="black" stroke-width="2" opacity="0.8" fill="red"/><rect x="280.7997000000007" y="194.485" width="15" height="32.6" rx="3" ry="3" stroke="black" stroke-width="2" opacity="0.8" fill="red"/><rect x="300.3771000000007" y="133.09903000000008" width="15" height="31" rx="3" ry="3" stroke="black" stroke-width="2" opacity="0.8" fill="red"/><rect x="289.99514999999997" y="397.78168000000005" width="15" height="28.4" rx="3" ry="3" stroke="black" stroke-width="2" opacity="0.8" fill="red"/><rect x="231.46319999999957" y="70.09180000000003" width="15" height="23" rx="3" ry="3" stroke="black" stroke-width="2" opacity="0.8" fill="red"/><rect x="171.1598999999992" y="314.7442" width="15" height="22" rx="3" ry="3" stroke="black" stroke-width="2" opacity="0.8" fill="red"/><rect x="282.8510999999992" y="321.3418" width="15" height="19.1" rx="3" ry="3" stroke="black" stroke-width="2" opacity="0.8" fill="red"/><rect x="200.89584000000048" y="152.30175999999994" width="15" height="16.3" rx="3" ry="3" stroke="black" stroke-width="2" opacity="0.8" fill="red"/><rect x="232.0170300000001" y="435.17425" width="15" height="15" rx="3" ry="3" stroke="black" stroke-width="2" opacity="0.8" fill="red"/></svg>