<?xml version="1.0" encoding="UTF-8"?>
<svg xmlns="http://www.w3.org/2000/svg">
    <circle r="3" cx="184.4223999999997" cy="849.1550000000001" fill="green" stroke-width="1" stroke="black"/>
    <circle r="3" cx="446.2078399999996" cy="834.2292" fill="green" stroke-width="1" stroke="black"/>
    <circle r="3" cx="443.6763199999973" cy="847.4267" fill="green" stroke-width="1" stroke="black"/>
    <circle r="3" cx="-163.11680000000024" cy="916.0649999999999" fill="green" stroke-width="1" stroke="black"/>
    <circle r="3" cx="401.8248000000028" cy="850.0514999999999" fill="green" stroke-width="1" stroke="black"/>
    <circle r="3" cx="473.80640000000085" cy="889.278" fill="green" stroke-width="1" stroke="black"/>
    <circle r="3" cx="477.8847999999982" cy="810.4420000000001" fill="green" stroke-width="1" stroke="black"/>
    <circle r="3" cx="517.0337599999982" cy="956.7270000000001" fill="green" stroke-width="1" stroke="black"/>
    <circle r="3" cx="387.91439999999966" cy="864.636" fill="green" stroke-width="1" stroke="black"/>
    <circle r="3" cx="447.763759999998" cy="830.8314066011151" fill="green" stroke-width="1" stroke="black"/>
    <circle r="3" cx="184.65256000000068" cy="848.6546999999999" fill="green" stroke-width="1" stroke="black"/>
    <circle r="3" cx="454.7752800000012" cy="850.1647702443804" fill="green" stroke-width="1" stroke="black"/>
    <circle r="3" cx="456.8172000000004" cy="873.4580000000001" fill="green" stroke-width="1" stroke="black"/>
    <circle r="3" cx="544.5285599999977" cy="996.3348000000001" fill="green" stroke-width="1" stroke="black"/>
    <circle r="3" cx="704.6552799999972" cy="829.3206" fill="green" stroke-width="1" stroke="black"/>
    <circle r="3" cx="704.6335199999987" cy="828.9727" fill="green" stroke-width="1" stroke="black"/>
    <circle r="3" cx="454.5668799999987" cy="805.23380430647" fill="green" stroke-width="1" stroke="black"/>
    <circle r="3" cx="296.1999999999989" cy="1296.4" fill="green" stroke-width="1" stroke="black"/>
    <circle r="3" cx="751.2336000000005" cy="754.8589999999999" fill="green" stroke-width="1" stroke="black"/>
    <circle r="3" cx="434.1941599999984" cy="801.7673000000001" fill="green" stroke-width="1" stroke="black"/>
    <circle r="3" cx="322.6672000000008" cy="472.8940000000001" fill="green" stroke-width="1" stroke="black"/>
    <circle r="3" cx="555.6056000000012" cy="1235.6529999999998" fill="green" stroke-width="1" stroke="black"/>
    <circle r="3" cx="525.4808000000025" cy="435.6870000000002" fill="green" stroke-width="1" stroke="black"/>
    <circle r="3" cx="546.6639999999984" cy="1266.67" fill="green" stroke-width="1" stroke="black"/>
    <circle r="3" cx="206.4076" cy="827.9989999999999" fill="green" stroke-width="1" stroke="black"/>
    <circle r="3" cx="608.1759999999974" cy="984.8140000000001" fill="green" stroke-width="1" stroke="black"/>
    <circle r="3" cx="261.40040000000226" cy="416.58529999999996" fill="green" stroke-width="1" stroke="black"/>
    <circle r="3" cx="70.45623999999862" cy="706.5181" fill="green" stroke-width="1" stroke="black"/>
    <circle r="3" cx="797.466639999999" cy="793.0371" fill="green" stroke-width="1" stroke="black"/>
    <circle r="3" cx="525.1339200000018" cy="1411.4297" fill="green" stroke-width="1" stroke="black"/>
    <circle r="3" cx="824.7231999999997" cy="826.5418" fill="green" stroke-width="1" stroke="black"/>
    <circle r="3" cx="449.5943199999999" cy="856.8952" fill="green" stroke-width="1" stroke="black"/>
    <circle r="3" cx="602.3752000000002" cy="605.7648" fill="green" stroke-width="1" stroke="black"/>
    <circle r="3" cx="602.3049599999979" cy="606.4363999999999" fill="green" stroke-width="1" stroke="black"/>
    <circle r="3" cx="-376.91520000000196" cy="776.8900000000001" fill="green" stroke-width="1" stroke="black"/>
    <circle r="3" cx="-376.91520000000196" cy="776.8900000000001" fill="green" stroke-width="1" stroke="black"/>
    <circle r="3" cx="583.0984000000001" cy="1130.028" fill="green" stroke-width="1" stroke="black"/>
    <circle r="3" cx="742.6688000000013" cy="1008.3409999999999" fill="green" stroke-width="1" stroke="black"/>
    <circle r="3" cx="452.63199999999983" cy="855.1139999999999" fill="green" stroke-width="1" stroke="black"/>
    <circle r="3" cx="341.6845599999988" cy="465.7152" fill="green" stroke-width="1" stroke="black"/>
    <circle r="3" cx="399.44960000000265" cy="859.348" fill="green" stroke-width="1" stroke="black"/>
    <circle r="3" cx="705.3743999999995" cy="829.6840000000001" fill="green" stroke-width="1" stroke="black"/>
    <circle r="3" cx="222.7142399999991" cy="825.3938" fill="green" stroke-width="1" stroke="black"/>
    <circle r="3" cx="803.4831999999994" cy="818.1750000000001" fill="green" stroke-width="1" stroke="black"/>
    <circle r="3" cx="530.6135200000028" cy="1445.4521" fill="green" stroke-width="1" stroke="black"/>
    <circle r="3" cx="404.8936000000026" cy="667.079" fill="green" stroke-width="1" stroke="black"/>
    <circle r="3" cx="428.8904000000002" cy="1128.838" fill="green" stroke-width="1" stroke="black"/>
    <circle r="3" cx="337.38480000000095" cy="683.4689000000001" fill="green" stroke-width="1" stroke="black"/>
    <circle r="3" cx="448.04191999999716" cy="842.5955999999999" fill="green" stroke-width="1" stroke="black"/>
    <circle r="3" cx="-9.634560000000647" cy="740.8848999999999" fill="green" stroke-width="1" stroke="black"/>
    <circle r="3" cx="586.6640000000018" cy="1166.67" fill="green" stroke-width="1" stroke="black"/>
    <circle r="3" cx="460.52799999999934" cy="882.8450000000001" fill="green" stroke-width="1" stroke="black"/>
    <circle r="3" cx="-59.21359999999822" cy="901.686" fill="green" stroke-width="1" stroke="black"/>
    <circle r="3" cx="366.00415999999996" cy="741.1797" fill="green" stroke-width="1" stroke="black"/>
    <circle r="3" cx="-108.22992000000227" cy="685.7283999999999" fill="green" stroke-width="1" stroke="black"/>
    <circle r="3" cx="-149.40632000000278" cy="891.6255" fill="green" stroke-width="1" stroke="black"/>
    <circle r="3" cx="211.8277599999999" cy="126.69620000000003" fill="green" stroke-width="1" stroke="black"/>
    <circle r="3" cx="434.1941599999984" cy="801.7673000000001" fill="green" stroke-width="1" stroke="black"/>
    <circle r="3" cx="522.1178399999985" cy="960.7928999999999" fill="green" stroke-width="1" stroke="black"/>
    <circle r="3" cx="418.1149600000026" cy="1411.2755" fill="green" stroke-width="1" stroke="black"/>
    <circle r="3" cx="672.9773599999987" cy="1197.2006" fill="green" stroke-width="1" stroke="black"/>
    <circle r="3" cx="463.45440000000053" cy="879.1880000000001" fill="green" stroke-width="1" stroke="black"/>
    <circle r="3" cx="324.9048000000016" cy="460.16499999999996" fill="green" stroke-width="1" stroke="black"/>
    <circle r="3" cx="539.5835999999974" cy="1128.2174" fill="green" stroke-width="1" stroke="black"/>
    <circle r="3" cx="337.51847999999995" cy="553.6109" fill="green" stroke-width="1" stroke="black"/>
    <circle r="3" cx="419.32800000000157" cy="610.838" fill="green" stroke-width="1" stroke="black"/>
    <circle r="3" cx="797.787679999999" cy="796.8025999999999" fill="green" stroke-width="1" stroke="black"/>
    <circle r="3" cx="236.11032000000023" cy="670.0545" fill="green" stroke-width="1" stroke="black"/>
    <circle r="3" cx="600.5975999999976" cy="1177.132" fill="green" stroke-width="1" stroke="black"/>
    <circle r="3" cx="705.2230799999961" cy="832.7224735976615" fill="green" stroke-width="1" stroke="black"/>
    <circle r="3" cx="509.9417599999981" cy="1366.0397" fill="green" stroke-width="1" stroke="black"/>
    <circle r="3" cx="488.18560000000275" cy="1577.3790000000001" fill="green" stroke-width="1" stroke="black"/>
    <circle r="3" cx="456.98655999999573" cy="926.5119151226424" fill="green" stroke-width="1" stroke="black"/>
    <circle r="3" cx="452.63199999999983" cy="855.1139999999999" fill="green" stroke-width="1" stroke="black"/>
    <circle r="3" cx="-192.76160000000004" cy="876.9910000000001" fill="green" stroke-width="1" stroke="black"/>
    <circle r="3" cx="822.120799999999" cy="802.3610000000001" fill="green" stroke-width="1" stroke="black"/>
    <circle r="3" cx="-104.55440000000067" cy="730.5950000000001" fill="green" stroke-width="1" stroke="black"/>
    <circle r="3" cx="452.21288000000186" cy="852.8574" fill="green" stroke-width="1" stroke="black"/>
    <circle r="3" cx="385.00655999999935" cy="885.2956" fill="green" stroke-width="1" stroke="black"/>
    <circle r="3" cx="-151.93936000000008" cy="898.7497" fill="green" stroke-width="1" stroke="black"/>
    <circle r="3" cx="461.2728000000004" cy="899.6999999999999" fill="green" stroke-width="1" stroke="black"/>
    <circle r="3" cx="453.85112000000163" cy="752.1880279293244" fill="green" stroke-width="1" stroke="black"/>
    <circle r="3" cx="689.3759999999986" cy="826.2799999999999" fill="green" stroke-width="1" stroke="black"/>
    <circle r="3" cx="184.65256000000068" cy="848.6546999999999" fill="green" stroke-width="1" stroke="black"/>
    <circle r="3" cx="508.71759999999995" cy="481.7290000000001" fill="green" stroke-width="1" stroke="black"/>
    <circle r="3" cx="441.74239999999827" cy="1139.097" fill="green" stroke-width="1" stroke="black"/>
    <circle r="3" cx="798.0654800000025" cy="793.8126804829682" fill="green" stroke-width="1" stroke="black"/>
    <circle r="3" cx="463.43120000000226" cy="854.014" fill="green" stroke-width="1" stroke="black"/>
    <circle r="3" cx="332.34391999999957" cy="819.323" fill="green" stroke-width="1" stroke="black"/>
    <circle r="3" cx="452.6327999999978" cy="854.2320000000001" fill="green" stroke-width="1" stroke="black"/>
    <circle r="3" cx="248.3678399999974" cy="653.0480000000001" fill="green" stroke-width="1" stroke="black"/>
    <circle r="3" cx="270.6042400000001" cy="736.5729999999999" fill="green" stroke-width="1" stroke="black"/>
    <circle r="3" cx="338.00343999999996" cy="684.1241" fill="green" stroke-width="1" stroke="black"/>
    <circle r="3" cx="22.346399999997857" cy="756.947" fill="green" stroke-width="1" stroke="black"/>
    <circle r="3" cx="190.55480000000102" cy="841.2291999999999" fill="green" stroke-width="1" stroke="black"/>
    <circle r="3" cx="-201.38623999999936" cy="820.8812" fill="green" stroke-width="1" stroke="black"/>
    <circle r="3" cx="282.71199999999794" cy="853.4200000000001" fill="green" stroke-width="1" stroke="black"/>
    <circle r="3" cx="521.7519999999979" cy="958.88" fill="green" stroke-width="1" stroke="black"/>
    <circle r="3" cx="256.86959999999885" cy="1220.251" fill="green" stroke-width="1" stroke="black"/>
    <circle r="3" cx="-182.93919999999844" cy="1015.6940000000001" fill="green" stroke-width="1" stroke="black"/>
    <circle r="3" cx="493.258400000002" cy="641.359" fill="green" stroke-width="1" stroke="black"/>
    <circle r="3" cx="603.8895600000046" cy="604.103020112051" fill="green" stroke-width="1" stroke="black"/>
    <circle r="3" cx="509.9417599999981" cy="1366.0397" fill="green" stroke-width="1" stroke="black"/>
    <circle r="3" cx="716.1352799999975" cy="981.329" fill="green" stroke-width="1" stroke="black"/>
    <circle r="3" cx="452.9070400000023" cy="858.2513" fill="green" stroke-width="1" stroke="black"/>
    <circle r="3" cx="335.2807999999982" cy="470.3689999999998" fill="green" stroke-width="1" stroke="black"/>
    <circle r="3" cx="326.3680000000022" cy="355.3099999999998" fill="green" stroke-width="1" stroke="black"/>
    <circle r="3" cx="583.1096000000002" cy="989.6400000000001" fill="green" stroke-width="1" stroke="black"/>
    <circle r="3" cx="452.9816799999992" cy="858.3339000000001" fill="green" stroke-width="1" stroke="black"/>
    <circle r="3" cx="-66.39023999999836" cy="810.5752428403789" fill="green" stroke-width="1" stroke="black"/>
    <circle r="3" cx="432.74491999999896" cy="806.7675597918847" fill="green" stroke-width="1" stroke="black"/>
    <circle r="3" cx="432.0216000000016" cy="874.846" fill="green" stroke-width="1" stroke="black"/>
    <circle r="3" cx="489.60503999999787" cy="1577.1624" fill="green" stroke-width="1" stroke="black"/>
    <circle r="3" cx="592.7408000000014" cy="985.12" fill="green" stroke-width="1" stroke="black"/>
    <circle r="3" cx="454.12383999999975" cy="857.2799" fill="green" stroke-width="1" stroke="black"/>
    <circle r="3" cx="572.720240000001" cy="1143.0501" fill="green" stroke-width="1" stroke="black"/>
    <circle r="3" cx="218.3400000000006" cy="1090.289" fill="green" stroke-width="1" stroke="black"/>
    <circle r="3" cx="-59.21359999999822" cy="901.686" fill="green" stroke-width="1" stroke="black"/>
    <circle r="3" cx="109.89999999999895" cy="705.0609999999999" fill="green" stroke-width="1" stroke="black"/>
    <circle r="3" cx="716.2690399999974" cy="960.3375000000001" fill="green" stroke-width="1" stroke="black"/>
    <circle r="3" cx="218.09648000000266" cy="820.4467" fill="green" stroke-width="1" stroke="black"/>
    <circle r="3" cx="-149.70367999999894" cy="895.0358" fill="green" stroke-width="1" stroke="black"/>
    <circle r="3" cx="218.25279999999907" cy="829.5594" fill="green" stroke-width="1" stroke="black"/>
    <circle r="3" cx="336.63440000000264" cy="471.1560000000001" fill="green" stroke-width="1" stroke="black"/>
    <circle r="3" cx="21.797920000000204" cy="750.818" fill="green" stroke-width="1" stroke="black"/>
    <circle r="3" cx="420.07948000000397" cy="1253.5891750818769" fill="green" stroke-width="1" stroke="black"/>
    <circle r="3" cx="709.8136000000011" cy="880.957" fill="green" stroke-width="1" stroke="black"/>
    <circle r="3" cx="543.7344800000005" cy="995.1406000000001" fill="green" stroke-width="1" stroke="black"/>
    <circle r="3" cx="503.34399999999846" cy="684.0260000000001" fill="green" stroke-width="1" stroke="black"/>
    <circle r="3" cx="515.2736000000004" cy="897.467" fill="green" stroke-width="1" stroke="black"/>
    <circle r="3" cx="418.36000000000126" cy="366.3699999999999" fill="green" stroke-width="1" stroke="black"/>
    <circle r="3" cx="421.91199999999753" cy="506.1500000000001" fill="green" stroke-width="1" stroke="black"/>
    <circle r="3" cx="405.1815999999974" cy="866.9910000000001" fill="green" stroke-width="1" stroke="black"/>
    <circle r="3" cx="292.1055200000012" cy="285.21440000000007" fill="green" stroke-width="1" stroke="black"/>
    <circle r="3" cx="333.11471999999753" cy="510.56809999999996" fill="green" stroke-width="1" stroke="black"/>
    <circle r="3" cx="516.2911199999996" cy="1342.8655" fill="green" stroke-width="1" stroke="black"/>
    <circle r="3" cx="523.8323999999977" cy="1408.7766" fill="green" stroke-width="1" stroke="black"/>
    <circle r="3" cx="598.3288800000025" cy="1278.7963" fill="green" stroke-width="1" stroke="black"/>
    <circle r="3" cx="598.7880000000018" cy="881.72" fill="green" stroke-width="1" stroke="black"/>
    <circle r="3" cx="815.2719199999979" cy="998.54943086464" fill="green" stroke-width="1" stroke="black"/>
    <circle r="3" cx="465.676000000002" cy="914.2102000000001" fill="green" stroke-width="1" stroke="black"/>
    <circle r="3" cx="512.7699199999995" cy="332.8356000000001" fill="green" stroke-width="1" stroke="black"/>
    <circle r="3" cx="320.97519999999804" cy="1189.322" fill="green" stroke-width="1" stroke="black"/>
    <circle r="3" cx="680.1481599999988" cy="556.3439999999999" fill="green" stroke-width="1" stroke="black"/>
    <circle r="3" cx="487.52064000000246" cy="1575.6591" fill="green" stroke-width="1" stroke="black"/>
    <circle r="3" cx="428.62480000000005" cy="1130.356" fill="green" stroke-width="1" stroke="black"/>
    <circle r="3" cx="685.3264000000024" cy="913.794" fill="green" stroke-width="1" stroke="black"/>
    <circle r="3" cx="532.3471999999981" cy="460.44600000000014" fill="green" stroke-width="1" stroke="black"/>
    <circle r="3" cx="338.24111999999786" cy="467.5384999999999" fill="green" stroke-width="1" stroke="black"/>
    <circle r="3" cx="512.8046400000017" cy="336.8845" fill="green" stroke-width="1" stroke="black"/>
    <circle r="3" cx="263.1919200000027" cy="1212.6979" fill="green" stroke-width="1" stroke="black"/>
    <circle r="3" cx="663.6368800000014" cy="580.6849000000001" fill="green" stroke-width="1" stroke="black"/>
    <circle r="3" cx="340.9719999999993" cy="693.6068" fill="green" stroke-width="1" stroke="black"/>
    <circle r="3" cx="586.6640000000018" cy="1166.67" fill="green" stroke-width="1" stroke="black"/>
    <circle r="3" cx="698.5784799999976" cy="901.7748999999999" fill="green" stroke-width="1" stroke="black"/>
    <circle r="3" cx="69.2639999999983" cy="786.58" fill="green" stroke-width="1" stroke="black"/>
    <circle r="3" cx="185.16799999999876" cy="849.3607999999999" fill="green" stroke-width="1" stroke="black"/>
    <circle r="3" cx="787.0079999999973" cy="863.2899999999998" fill="green" stroke-width="1" stroke="black"/>
    <circle r="3" cx="-133.4776799999986" cy="692.5945" fill="green" stroke-width="1" stroke="black"/>
    <circle r="3" cx="-6.193600000000288" cy="736.486" fill="green" stroke-width="1" stroke="black"/>
    <circle r="3" cx="-155.96047999999882" cy="902.2029" fill="green" stroke-width="1" stroke="black"/>
    <circle r="3" cx="293.5448000000008" cy="346.24999999999994" fill="green" stroke-width="1" stroke="black"/>
    <circle r="3" cx="338.00343999999996" cy="684.1241" fill="green" stroke-width="1" stroke="black"/>
    <circle r="3" cx="607.9400000000021" cy="1179.922" fill="green" stroke-width="1" stroke="black"/>
    <circle r="3" cx="-150.4759999999976" cy="897.9699999999999" fill="green" stroke-width="1" stroke="black"/>
    <circle r="3" cx="335.7691999999986" cy="471.6665" fill="green" stroke-width="1" stroke="black"/>
    <circle r="3" cx="454.0368000000001" cy="848.8370000000001" fill="green" stroke-width="1" stroke="black"/>
    <circle r="3" cx="499.2184000000009" cy="303.8470000000002" fill="green" stroke-width="1" stroke="black"/>
    <circle r="3" cx="295.544000000001" cy="1224.21" fill="green" stroke-width="1" stroke="black"/>
    <circle r="3" cx="284.8136000000011" cy="273.0961999999999" fill="green" stroke-width="1" stroke="black"/>
    <circle r="3" cx="284.8136000000011" cy="273.0961999999999" fill="green" stroke-width="1" stroke="black"/>
    <circle r="3" cx="515.4586800000004" cy="331.0363478423675" fill="green" stroke-width="1" stroke="black"/>
    <circle r="3" cx="57.78144000000225" cy="697.4731999999999" fill="green" stroke-width="1" stroke="black"/>
    <circle r="3" cx="110.61280000000124" cy="704.251" fill="green" stroke-width="1" stroke="black"/>
    <circle r="3" cx="451.2398399999995" cy="860.9762000000001" fill="green" stroke-width="1" stroke="black"/>
    <circle r="3" cx="-145.4751999999985" cy="700.632" fill="green" stroke-width="1" stroke="black"/>
    <circle r="3" cx="825.0325599999996" cy="846.8285" fill="green" stroke-width="1" stroke="black"/>
    <circle r="3" cx="586.6640000000018" cy="1166.67" fill="green" stroke-width="1" stroke="black"/>
    <circle r="3" cx="490.05103999999733" cy="1578.051" fill="green" stroke-width="1" stroke="black"/>
    <circle r="3" cx="543.9000000000021" cy="1255.295" fill="green" stroke-width="1" stroke="black"/>
    <circle r="3" cx="515.2736000000004" cy="897.467" fill="green" stroke-width="1" stroke="black"/>
    <circle r="3" cx="254.5503999999994" cy="309.9940000000001" fill="green" stroke-width="1" stroke="black"/>
    <circle r="3" cx="542.0946800000024" cy="672.7219963814499" fill="green" stroke-width="1" stroke="black"/>
    <circle r="3" cx="-133.0973599999993" cy="694.8054" fill="green" stroke-width="1" stroke="black"/>
    <circle r="3" cx="453.8683999999989" cy="854.8267000000001" fill="green" stroke-width="1" stroke="black"/>
    <circle r="3" cx="354.5523199999991" cy="698.9059" fill="green" stroke-width="1" stroke="black"/>
    <circle r="3" cx="138.7260000000026" cy="424.0149999999998" fill="green" stroke-width="1" stroke="black"/>
    <circle r="3" cx="255.58343999999806" cy="307.3534000000002" fill="green" stroke-width="1" stroke="black"/>
    <circle r="3" cx="592.7871999999979" cy="1351.925" fill="green" stroke-width="1" stroke="black"/>
    <circle r="3" cx="186.2146399999972" cy="849.0648999999999" fill="green" stroke-width="1" stroke="black"/>
    <circle r="3" cx="255.1380800000004" cy="309.36109999999985" fill="green" stroke-width="1" stroke="black"/>
    <circle r="3" cx="449.369999999999" cy="836.2031000000001" fill="green" stroke-width="1" stroke="black"/>
    <circle r="3" cx="274.11200000000235" cy="1139.404" fill="green" stroke-width="1" stroke="black"/>
    <circle r="3" cx="68.56520000000046" cy="565.9805" fill="green" stroke-width="1" stroke="black"/>
    <circle r="3" cx="804.1688000000022" cy="788.2709000000001" fill="green" stroke-width="1" stroke="black"/>
    <circle r="3" cx="489.0546400000005" cy="1576.2404999999999" fill="green" stroke-width="1" stroke="black"/>
    <circle r="3" cx="525.1339200000018" cy="1411.4297" fill="green" stroke-width="1" stroke="black"/>
    <circle r="3" cx="473.80640000000085" cy="889.278" fill="green" stroke-width="1" stroke="black"/>
    <circle r="3" cx="254.6543999999983" cy="305.79499999999985" fill="green" stroke-width="1" stroke="black"/>
    <circle r="3" cx="185.36639999999807" cy="850.6320000000001" fill="green" stroke-width="1" stroke="black"/>
    <circle r="3" cx="635.4743999999982" cy="545.7259999999999" fill="green" stroke-width="1" stroke="black"/>
    <circle r="3" cx="211.90735999999788" cy="126.61260000000007" fill="green" stroke-width="1" stroke="black"/>
    <circle r="3" cx="759.9915199999998" cy="808.3187999999999" fill="green" stroke-width="1" stroke="black"/>
    <circle r="3" cx="379.7072000000014" cy="407.50600000000014" fill="green" stroke-width="1" stroke="black"/>
    <circle r="3" cx="704.7610399999996" cy="953.7271250357429" fill="green" stroke-width="1" stroke="black"/>
    <circle r="3" cx="464.90612000000056" cy="852.9069601338431" fill="green" stroke-width="1" stroke="black"/>
    <circle r="3" cx="456.0551999999973" cy="856.33" fill="green" stroke-width="1" stroke="black"/>
    <circle r="3" cx="485.6143999999972" cy="795.816" fill="green" stroke-width="1" stroke="black"/>
    <circle r="3" cx="460.87463999999727" cy="844.7348413508566" fill="green" stroke-width="1" stroke="black"/>
    <circle r="3" cx="584.3207199999995" cy="1130.759" fill="green" stroke-width="1" stroke="black"/>
    <circle r="3" cx="797.5623999999982" cy="795.2950000000001" fill="green" stroke-width="1" stroke="black"/>
    <circle r="3" cx="-20.23760000000152" cy="398.9699999999998" fill="green" stroke-width="1" stroke="black"/>
    <circle r="3" cx="-150.0089600000024" cy="893.5888000000001" fill="green" stroke-width="1" stroke="black"/>
    <circle r="3" cx="-201.46348000000103" cy="821.7379545360261" fill="green" stroke-width="1" stroke="black"/>
    <circle r="3" cx="-215.6000000000006" cy="1054.5549999999998" fill="green" stroke-width="1" stroke="black"/>
    <circle r="3" cx="535.1667200000009" cy="669.7367" fill="green" stroke-width="1" stroke="black"/>
    <circle r="3" cx="457.07120000000145" cy="950.547" fill="green" stroke-width="1" stroke="black"/>
    <circle r="3" cx="575.4399999999976" cy="709.0600000000001" fill="green" stroke-width="1" stroke="black"/>
    <circle r="3" cx="569.7648000000015" cy="1062.116" fill="green" stroke-width="1" stroke="black"/>
    <circle r="3" cx="670.9639999999979" cy="719.6469999999999" fill="green" stroke-width="1" stroke="black"/>
    <circle r="3" cx="672.5272000000018" cy="894.366" fill="green" stroke-width="1" stroke="black"/>
    <circle r="3" cx="528.2216000000005" cy="1283.5639999999999" fill="green" stroke-width="1" stroke="black"/>
    <circle r="3" cx="470.3144000000009" cy="913.297" fill="green" stroke-width="1" stroke="black"/>
    <circle r="3" cx="66.8863999999985" cy="568.574" fill="green" stroke-width="1" stroke="black"/>
    <circle r="3" cx="607.9400000000021" cy="1179.922" fill="green" stroke-width="1" stroke="black"/>
    <circle r="3" cx="-134.68159999999898" cy="791.478" fill="green" stroke-width="1" stroke="black"/>
    <circle r="3" cx="495.5508000000009" cy="1402.4035" fill="green" stroke-width="1" stroke="black"/>
    <circle r="3" cx="211.74080000000117" cy="126.70000000000003" fill="green" stroke-width="1" stroke="black"/>
    <circle r="3" cx="445.8847999999989" cy="835.7710000000001" fill="green" stroke-width="1" stroke="black"/>
    <circle r="3" cx="-150.7031999999981" cy="898.7400000000001" fill="green" stroke-width="1" stroke="black"/>
    <circle r="3" cx="705.2230799999961" cy="832.7224735976615" fill="green" stroke-width="1" stroke="black"/>
    <circle r="3" cx="168.95119999999793" cy="1407.0549999999998" fill="green" stroke-width="1" stroke="black"/>
    <circle r="3" cx="450.4992800000025" cy="720.0468" fill="green" stroke-width="1" stroke="black"/>
    <circle r="3" cx="454.43200000000274" cy="856.1118000000001" fill="green" stroke-width="1" stroke="black"/>
    <circle r="3" cx="221.10799999999813" cy="822.684" fill="green" stroke-width="1" stroke="black"/>
    <circle r="3" cx="521.6227199999992" cy="959.7778999999999" fill="green" stroke-width="1" stroke="black"/>
    <circle r="3" cx="466.23200000000224" cy="625.08" fill="green" stroke-width="1" stroke="black"/>
    <circle r="3" cx="-152.6863999999989" cy="892.0826" fill="green" stroke-width="1" stroke="black"/>
    <circle r="3" cx="716.422080000001" cy="980.7926" fill="green" stroke-width="1" stroke="black"/>
    <circle r="3" cx="-155.78208000000018" cy="901.6497000000002" fill="green" stroke-width="1" stroke="black"/>
    <circle r="3" cx="112.04399999999737" cy="1042.9360000000001" fill="green" stroke-width="1" stroke="black"/>
    <circle r="3" cx="490.05103999999733" cy="1578.051" fill="green" stroke-width="1" stroke="black"/>
    <circle r="3" cx="342.40159999999946" cy="433.98100000000017" fill="green" stroke-width="1" stroke="black"/>
    <circle r="3" cx="393.83040000000165" cy="822.8610000000001" fill="green" stroke-width="1" stroke="black"/>
    <circle r="3" cx="500.09279999999876" cy="302.565" fill="green" stroke-width="1" stroke="black"/>
    <circle r="3" cx="709.850160000002" cy="889.0015" fill="green" stroke-width="1" stroke="black"/>
    <circle r="3" cx="709.5072399999992" cy="888.8842717214027" fill="green" stroke-width="1" stroke="black"/>
    <circle r="3" cx="315.85600000000227" cy="980.2800000000001" fill="green" stroke-width="1" stroke="black"/>
    <circle r="3" cx="46.6891999999973" cy="602.2103999999999" fill="green" stroke-width="1" stroke="black"/>
    <circle r="3" cx="870.6632000000013" cy="745.164" fill="green" stroke-width="1" stroke="black"/>
    <circle r="3" cx="588.5930400000007" cy="684.829" fill="green" stroke-width="1" stroke="black"/>
    <circle r="3" cx="600" cy="866.6700000000001" fill="green" stroke-width="1" stroke="black"/>
    <circle r="3" cx="282.4748800000009" cy="856.4619" fill="green" stroke-width="1" stroke="black"/>
    <circle r="3" cx="116.79359999999974" cy="511.7830000000001" fill="green" stroke-width="1" stroke="black"/>
    <circle r="3" cx="245.74079999999867" cy="650.9309999999999" fill="green" stroke-width="1" stroke="black"/>
    <circle r="3" cx="153.63351999999963" cy="299.51660000000004" fill="green" stroke-width="1" stroke="black"/>
    <circle r="3" cx="184.79791999999975" cy="851.0614999999999" fill="green" stroke-width="1" stroke="black"/>
    <circle r="3" cx="67.409600000002" cy="779.817" fill="green" stroke-width="1" stroke="black"/>
    <circle r="3" cx="464.9159999999995" cy="880.482" fill="green" stroke-width="1" stroke="black"/>
    <circle r="3" cx="101.02319999999736" cy="1062.136" fill="green" stroke-width="1" stroke="black"/>
    <circle r="3" cx="338.9527199999975" cy="464.5820999999999" fill="green" stroke-width="1" stroke="black"/>
    <circle r="3" cx="452.28799999999865" cy="856.648" fill="green" stroke-width="1" stroke="black"/>
    <circle r="3" cx="338.7722399999973" cy="687.9451999999999" fill="green" stroke-width="1" stroke="black"/>
    <circle r="3" cx="541.4440800000023" cy="996.032" fill="green" stroke-width="1" stroke="black"/>
    <circle r="3" cx="817.2062400000016" cy="466.95200000000006" fill="green" stroke-width="1" stroke="black"/>
</svg>