<?xml version="1.0" encoding="UTF-8"?><svg xmlns="http://www.w3.org/2000/svg" xmlns:xlink="http://www.w3.org/1999/xlink"><image xlink:href="../Resources/MapaNavarra.svg" width="500" height="500"/><circle r="2" cx="184.09239999999994" cy="204.74650000000003" stroke-width="1" stroke="black" fill="blue"/><circle r="2" cx="241.35796499999992" cy="200.26876" stroke-width="1" stroke="black" fill="red"/><circle r="3" cx="240.80419499999942" cy="204.22800999999998" stroke-width="1" stroke="black" fill="red"/><circle r="5" cx="108.06819999999993" cy="224.81949999999995" stroke-width="1" stroke="black" fill="red"/><circle r="3" cx="231.64917500000064" cy="205.01545" stroke-width="1" stroke="black" fill="red"/><circle r="2" cx="247.39515000000017" cy="216.78340000000003" stroke-width="1" stroke="black" fill="green"/><circle r="6" cx="248.28729999999962" cy="193.13260000000002" stroke-width="1" stroke="black" fill="red"/><circle r="2" cx="256.8511349999996" cy="237.0181" stroke-width="1" stroke="black" fill="red"/><circle r="7" cx="228.60627499999993" cy="209.3908" stroke-width="1" stroke="black" fill="red"/><circle r="3" cx="241.69832249999956" cy="199.24942198033455" stroke-width="1" stroke="black" fill="red"/><circle r="3" cx="184.14274750000016" cy="204.59641" stroke-width="1" stroke="black" fill="red"/><circle r="3" cx="243.23209250000025" cy="205.0494310733141" stroke-width="1" stroke="black" fill="red"/><circle r="6" cx="243.67876250000006" cy="212.03740000000005" stroke-width="1" stroke="black" fill="red"/><circle r="2" cx="262.8656224999995" cy="248.90044" stroke-width="1" stroke="black" fill="green"/><circle r="2" cx="297.89334249999933" cy="198.79618" stroke-width="1" stroke="black" fill="blue"/><circle r="2" cx="297.88858249999976" cy="198.69180999999998" stroke-width="1" stroke="black" fill="blue"/><circle r="3" cx="243.18650499999973" cy="191.570141291941" stroke-width="1" stroke="black" fill="red"/><circle r="2" cx="208.54374999999976" cy="338.92" stroke-width="1" stroke="black" fill="blue"/><circle r="2" cx="308.08235000000013" cy="176.45769999999993" stroke-width="1" stroke="black" fill="red"/><circle r="2" cx="238.72997249999963" cy="190.53019" stroke-width="1" stroke="black" fill="blue"/><circle r="2" cx="214.3334500000002" cy="91.8682" stroke-width="1" stroke="black" fill="blue"/><circle r="2" cx="265.2887250000002" cy="320.6959" stroke-width="1" stroke="black" fill="orange"/><circle r="2" cx="258.69892500000054" cy="80.70609999999999" stroke-width="1" stroke="black" fill="blue"/><circle r="2" cx="263.3327499999997" cy="330.001" stroke-width="1" stroke="black" fill="blue"/><circle r="3" cx="188.9016625" cy="198.3997" stroke-width="1" stroke="black" fill="blue"/><circle r="2" cx="276.78849999999943" cy="245.44420000000002" stroke-width="1" stroke="black" fill="blue"/><circle r="2" cx="200.9313375000005" cy="74.97559000000001" stroke-width="1" stroke="black" fill="green"/><circle r="3" cx="159.16230249999967" cy="161.95542999999998" stroke-width="1" stroke="black" fill="blue"/><circle r="2" cx="318.1958274999997" cy="187.91113000000007" stroke-width="1" stroke="black" fill="red"/><circle r="3" cx="258.6230450000004" cy="373.42891000000003" stroke-width="1" stroke="black" fill="orange"/><circle r="2" cx="324.15819999999997" cy="197.96254" stroke-width="1" stroke="black" fill="blue"/><circle r="3" cx="242.09875749999998" cy="207.06856000000005" stroke-width="1" stroke="black" fill="red"/><circle r="7" cx="275.51957500000003" cy="131.72943999999995" stroke-width="1" stroke="black" fill="blue"/><circle r="3" cx="275.5042099999995" cy="131.93092000000001" stroke-width="1" stroke="black" fill="blue"/><circle r="2" cx="271.302775" cy="289.0084" stroke-width="1" stroke="black" fill="orange"/><circle r="3" cx="306.20880000000034" cy="252.5023" stroke-width="1" stroke="black" fill="red"/><circle r="3" cx="242.76324999999997" cy="206.5342" stroke-width="1" stroke="black" fill="blue"/><circle r="2" cx="218.49349749999976" cy="89.71456" stroke-width="1" stroke="black" fill="green"/><circle r="5" cx="231.12960000000055" cy="207.8044" stroke-width="1" stroke="black" fill="red"/><circle r="2" cx="298.0506499999999" cy="198.90520000000004" stroke-width="1" stroke="black" fill="blue"/><circle r="3" cx="192.4687399999998" cy="197.61814000000004" stroke-width="1" stroke="black" fill="red"/><circle r="3" cx="319.51194999999984" cy="195.45250000000004" stroke-width="1" stroke="black" fill="orange"/><circle r="2" cx="259.8217075000006" cy="383.63563" stroke-width="1" stroke="black" fill="orange"/><circle r="2" cx="232.32047500000056" cy="150.12369999999999" stroke-width="1" stroke="black" fill="blue"/><circle r="3" cx="237.56977500000005" cy="288.6514" stroke-width="1" stroke="black" fill="blue"/><circle r="3" cx="217.5529250000002" cy="155.04066999999998" stroke-width="1" stroke="black" fill="blue"/><circle r="3" cx="241.75916999999936" cy="202.77867999999995" stroke-width="1" stroke="black" fill="red"/><circle r="2" cx="141.64243999999985" cy="172.26546999999994" stroke-width="1" stroke="black" fill="blue"/><circle r="3" cx="272.0827500000004" cy="300.00100000000003" stroke-width="1" stroke="black" fill="blue"/><circle r="5" cx="244.49049999999988" cy="214.85350000000005" stroke-width="1" stroke="black" fill="red"/><circle r="2" cx="130.79702500000042" cy="220.50580000000002" stroke-width="1" stroke="black" fill="orange"/><circle r="2" cx="223.81340999999998" cy="172.35391000000004" stroke-width="1" stroke="black" fill="blue"/><circle r="3" cx="120.07470499999948" cy="155.71852" stroke-width="1" stroke="black" fill="red"/><circle r="2" cx="111.06736749999936" cy="217.48764999999997" stroke-width="1" stroke="black" fill="green"/><circle r="2" cx="190.08732249999997" cy="-11.991139999999973" stroke-width="1" stroke="black" fill="green"/><circle r="3" cx="238.72997249999963" cy="190.53019" stroke-width="1" stroke="black" fill="red"/><circle r="2" cx="257.96327749999966" cy="238.23787" stroke-width="1" stroke="black" fill="green"/><circle r="2" cx="235.21264750000057" cy="373.38264999999996" stroke-width="1" stroke="black" fill="blue"/><circle r="2" cx="290.9637974999997" cy="309.16017999999997" stroke-width="1" stroke="black" fill="green"/><circle r="3" cx="245.13065000000012" cy="213.75640000000004" stroke-width="1" stroke="black" fill="red"/><circle r="3" cx="214.82292500000034" cy="88.04949999999997" stroke-width="1" stroke="black" fill="red"/><circle r="2" cx="261.7839124999994" cy="288.46522" stroke-width="1" stroke="black" fill="green"/><circle r="2" cx="217.58216749999997" cy="116.08326999999997" stroke-width="1" stroke="black" fill="blue"/><circle r="2" cx="235.47800000000035" cy="133.2514" stroke-width="1" stroke="black" fill="blue"/><circle r="2" cx="318.2660549999998" cy="189.04077999999998" stroke-width="1" stroke="black" fill="green"/><circle r="3" cx="195.39913250000006" cy="151.01635" stroke-width="1" stroke="black" fill="blue"/><circle r="2" cx="275.1307249999994" cy="303.13960000000003" stroke-width="1" stroke="black" fill="blue"/><circle r="2" cx="298.01754874999915" cy="199.81674207929842" stroke-width="1" stroke="black" fill="green"/><circle r="2" cx="255.2997599999996" cy="359.81191" stroke-width="1" stroke="black" fill="blue"/><circle r="2" cx="250.5406000000006" cy="423.2137" stroke-width="1" stroke="black" fill="green"/><circle r="5" cx="243.71580999999907" cy="227.9535745367927" stroke-width="1" stroke="black" fill="red"/><circle r="2" cx="242.76324999999997" cy="206.5342" stroke-width="1" stroke="black" fill="red"/><circle r="2" cx="101.58339999999998" cy="213.09730000000002" stroke-width="1" stroke="black" fill="red"/><circle r="3" cx="323.5889249999998" cy="190.7083" stroke-width="1" stroke="black" fill="red"/><circle r="5" cx="120.87872499999986" cy="169.17849999999999" stroke-width="1" stroke="black" fill="red"/><circle r="4" cx="242.67156750000038" cy="205.85721999999998" stroke-width="1" stroke="black" fill="red"/><circle r="7" cx="227.97018499999984" cy="215.58868" stroke-width="1" stroke="black" fill="red"/><circle r="4" cx="110.51326499999999" cy="219.62491" stroke-width="1" stroke="black" fill="red"/><circle r="3" cx="244.65342500000008" cy="219.90999999999997" stroke-width="1" stroke="black" fill="red"/><circle r="3" cx="243.02993250000037" cy="175.65640837879732" stroke-width="1" stroke="black" fill="blue"/><circle r="2" cx="294.5509999999997" cy="197.88399999999996" stroke-width="1" stroke="black" fill="blue"/><circle r="3" cx="184.14274750000016" cy="204.59641" stroke-width="1" stroke="black" fill="red"/><circle r="2" cx="255.031975" cy="94.51869999999997" stroke-width="1" stroke="black" fill="blue"/><circle r="3" cx="240.3811499999996" cy="291.7291" stroke-width="1" stroke="black" fill="red"/><circle r="2" cx="318.3268237500006" cy="188.14380414489045" stroke-width="1" stroke="black" fill="blue"/><circle r="2" cx="245.12557500000048" cy="206.20420000000001" stroke-width="1" stroke="black" fill="blue"/><circle r="2" cx="216.4502324999999" cy="195.7969" stroke-width="1" stroke="black" fill="blue"/><circle r="2" cx="242.76342499999953" cy="206.26960000000003" stroke-width="1" stroke="black" fill="green"/><circle r="3" cx="198.08046499999944" cy="145.9144" stroke-width="1" stroke="black" fill="red"/><circle r="2" cx="202.9446775" cy="170.9719" stroke-width="1" stroke="black" fill="green"/><circle r="2" cx="217.68825249999998" cy="155.23722999999995" stroke-width="1" stroke="black" fill="orange"/><circle r="2" cx="148.6382749999995" cy="177.08410000000003" stroke-width="1" stroke="black" fill="blue"/><circle r="2" cx="185.4338625000002" cy="202.36875999999995" stroke-width="1" stroke="black" fill="red"/><circle r="3" cx="99.69676000000015" cy="196.26436" stroke-width="1" stroke="black" fill="green"/><circle r="4" cx="205.59324999999956" cy="206.026" stroke-width="1" stroke="black" fill="blue"/><circle r="2" cx="257.8832499999995" cy="237.664" stroke-width="1" stroke="black" fill="green"/><circle r="2" cx="199.94022499999977" cy="316.07529999999997" stroke-width="1" stroke="black" fill="green"/><circle r="2" cx="103.73205000000036" cy="254.70820000000003" stroke-width="1" stroke="black" fill="blue"/><circle r="2" cx="251.65027500000042" cy="142.40769999999998" stroke-width="1" stroke="black" fill="orange"/><circle r="2" cx="275.85084125000105" cy="131.23090603361527" stroke-width="1" stroke="black" fill="blue"/><circle r="2" cx="255.2997599999996" cy="359.81191" stroke-width="1" stroke="black" fill="orange"/><circle r="2" cx="300.40459249999947" cy="244.39869999999996" stroke-width="1" stroke="black" fill="green"/><circle r="2" cx="242.82341500000052" cy="207.47539" stroke-width="1" stroke="black" fill="blue"/><circle r="3" cx="217.0926749999996" cy="91.11069999999995" stroke-width="1" stroke="black" fill="blue"/><circle r="2" cx="215.14300000000048" cy="56.59299999999996" stroke-width="1" stroke="black" fill="blue"/><circle r="2" cx="271.30522500000006" cy="246.892" stroke-width="1" stroke="black" fill="blue"/><circle r="3" cx="242.83974249999983" cy="207.50017000000003" stroke-width="1" stroke="black" fill="red"/><circle r="2" cx="129.22713500000037" cy="193.17257285211372" stroke-width="1" stroke="black" fill="blue"/><circle r="7" cx="238.41295124999976" cy="192.03026793756538" stroke-width="1" stroke="black" fill="red"/><circle r="3" cx="238.25472500000035" cy="212.4538" stroke-width="1" stroke="black" fill="red"/><circle r="2" cx="250.8511024999995" cy="423.14871999999997" stroke-width="1" stroke="black" fill="blue"/><circle r="2" cx="273.41205000000036" cy="245.536" stroke-width="1" stroke="black" fill="blue"/><circle r="5" cx="243.08958999999993" cy="207.18397" stroke-width="1" stroke="black" fill="red"/><circle r="2" cx="269.0325525000002" cy="292.91503" stroke-width="1" stroke="black" fill="blue"/><circle r="2" cx="191.51187500000015" cy="277.0867" stroke-width="1" stroke="black" fill="orange"/><circle r="2" cx="130.79702500000042" cy="220.50580000000002" stroke-width="1" stroke="black" fill="green"/><circle r="2" cx="167.79062499999975" cy="161.51829999999995" stroke-width="1" stroke="black" fill="blue"/><circle r="2" cx="300.4338524999994" cy="238.10125" stroke-width="1" stroke="black" fill="green"/><circle r="6" cx="191.4586050000006" cy="196.13401" stroke-width="1" stroke="black" fill="red"/><circle r="2" cx="111.00232000000022" cy="218.51074" stroke-width="1" stroke="black" fill="green"/><circle r="2" cx="191.49279999999982" cy="198.86782" stroke-width="1" stroke="black" fill="green"/><circle r="3" cx="217.38877500000058" cy="91.34680000000003" stroke-width="1" stroke="black" fill="red"/><circle r="2" cx="148.51829500000002" cy="175.24540000000002" stroke-width="1" stroke="black" fill="blue"/><circle r="2" cx="235.64238625000087" cy="326.07675252456306" stroke-width="1" stroke="black" fill="orange"/><circle r="2" cx="299.0217250000003" cy="214.2871" stroke-width="1" stroke="black" fill="blue"/><circle r="2" cx="262.69191750000016" cy="248.54218000000003" stroke-width="1" stroke="black" fill="blue"/><circle r="2" cx="253.85649999999964" cy="155.20780000000002" stroke-width="1" stroke="black" fill="blue"/><circle r="2" cx="256.4661000000001" cy="219.24009999999998" stroke-width="1" stroke="black" fill="orange"/><circle r="3" cx="235.2662500000003" cy="59.910999999999945" stroke-width="1" stroke="black" fill="blue"/><circle r="2" cx="236.0432499999995" cy="101.84500000000003" stroke-width="1" stroke="black" fill="blue"/><circle r="6" cx="232.3834749999994" cy="210.09730000000002" stroke-width="1" stroke="black" fill="red"/><circle r="2" cx="207.64808250000027" cy="35.564320000000066" stroke-width="1" stroke="black" fill="blue"/><circle r="2" cx="216.61884499999945" cy="103.17043000000001" stroke-width="1" stroke="black" fill="blue"/><circle r="2" cx="256.6886824999999" cy="352.85965" stroke-width="1" stroke="black" fill="orange"/><circle r="2" cx="258.3383374999995" cy="372.63298" stroke-width="1" stroke="black" fill="blue"/><circle r="2" cx="274.63444250000055" cy="333.63889" stroke-width="1" stroke="black" fill="blue"/><circle r="2" cx="274.73487500000044" cy="214.51600000000002" stroke-width="1" stroke="black" fill="orange"/><circle r="2" cx="322.0907324999995" cy="249.564829259392" stroke-width="1" stroke="black" fill="blue"/><circle r="4" cx="245.61662500000045" cy="224.26306000000005" stroke-width="1" stroke="black" fill="red"/><circle r="2" cx="255.9184199999999" cy="49.85068000000001" stroke-width="1" stroke="black" fill="red"/><circle r="3" cx="213.9633249999996" cy="306.7966" stroke-width="1" stroke="black" fill="red"/><circle r="2" cx="292.5324099999998" cy="116.90319999999997" stroke-width="1" stroke="black" fill="blue"/><circle r="4" cx="250.39514000000054" cy="422.69773" stroke-width="1" stroke="black"/><circle r="2" cx="237.51167500000003" cy="289.10679999999996" stroke-width="1" stroke="black" fill="blue"/><circle r="2" cx="293.6651500000005" cy="224.13819999999998" stroke-width="1" stroke="black" fill="blue"/><circle r="3" cx="260.2009499999996" cy="88.13380000000006" stroke-width="1" stroke="black" fill="blue"/><circle r="2" cx="217.7402449999995" cy="90.26154999999994" stroke-width="1" stroke="black" fill="green"/><circle r="4" cx="255.92601500000035" cy="51.06534999999997" stroke-width="1" stroke="black" fill="blue"/><circle r="2" cx="201.32323250000059" cy="313.80937" stroke-width="1" stroke="black" fill="blue"/><circle r="3" cx="288.9205675000003" cy="124.20546999999999" stroke-width="1" stroke="black" fill="blue"/><circle r="3" cx="218.33762499999983" cy="158.08204" stroke-width="1" stroke="black" fill="red"/><circle r="2" cx="272.0827500000004" cy="300.00100000000003" stroke-width="1" stroke="black" fill="green"/><circle r="2" cx="296.56404249999946" cy="220.53247" stroke-width="1" stroke="black" fill="orange"/><circle r="2" cx="158.9014999999996" cy="185.97400000000005" stroke-width="1" stroke="black" fill="orange"/><circle r="2" cx="184.25549999999976" cy="204.80823999999996" stroke-width="1" stroke="black" fill="green"/><circle r="2" cx="315.90799999999945" cy="208.98699999999997" stroke-width="1" stroke="black" fill="green"/><circle r="2" cx="114.55175750000029" cy="157.77835000000005" stroke-width="1" stroke="black" fill="blue"/><circle r="2" cx="142.39514999999994" cy="170.94579999999996" stroke-width="1" stroke="black" fill="green"/><circle r="3" cx="109.63364500000023" cy="220.66087" stroke-width="1" stroke="black" fill="blue"/><circle r="2" cx="207.96292500000015" cy="53.875" stroke-width="1" stroke="black" fill="blue"/><circle r="2" cx="217.68825249999998" cy="155.23722999999995" stroke-width="1" stroke="black" fill="blue"/><circle r="4" cx="276.7368750000005" cy="303.97659999999996" stroke-width="1" stroke="black" fill="blue"/><circle r="2" cx="110.8333750000005" cy="219.39099999999996" stroke-width="1" stroke="black" fill="green"/><circle r="2" cx="217.19951249999968" cy="91.49995000000001" stroke-width="1" stroke="black" fill="blue"/><circle r="3" cx="243.07055000000003" cy="204.65110000000004" stroke-width="1" stroke="black" fill="red"/><circle r="2" cx="252.95402500000017" cy="41.154100000000085" stroke-width="1" stroke="black" fill="blue"/><circle r="5" cx="208.4002500000002" cy="317.26300000000003" stroke-width="1" stroke="black" fill="blue"/><circle r="2" cx="206.05297500000023" cy="31.928859999999986" stroke-width="1" stroke="black" fill="orange"/><circle r="2" cx="206.05297500000023" cy="31.928859999999986" stroke-width="1" stroke="black" fill="orange"/><circle r="2" cx="256.5065862500001" cy="49.31090435271028" stroke-width="1" stroke="black" fill="blue"/><circle r="3" cx="156.38969000000048" cy="159.24195999999995" stroke-width="1" stroke="black" fill="blue"/><circle r="2" cx="167.9465500000003" cy="161.27530000000002" stroke-width="1" stroke="black" fill="red"/><circle r="6" cx="242.45871499999987" cy="208.29286000000002" stroke-width="1" stroke="black" fill="red"/><circle r="2" cx="111.92730000000034" cy="160.18959999999993" stroke-width="1" stroke="black" fill="blue"/><circle r="2" cx="324.2258724999999" cy="204.04854999999998" stroke-width="1" stroke="black" fill="blue"/><circle r="4" cx="272.0827500000004" cy="300.00100000000003" stroke-width="1" stroke="black" fill="orange"/><circle r="3" cx="250.94866499999944" cy="423.4153" stroke-width="1" stroke="black" fill="blue"/><circle r="2" cx="262.72812500000043" cy="326.5885" stroke-width="1" stroke="black" fill="green"/><circle r="2" cx="256.4661000000001" cy="219.24009999999998" stroke-width="1" stroke="black" fill="blue"/><circle r="3" cx="199.43289999999985" cy="42.9982" stroke-width="1" stroke="black" fill="green"/><circle r="2" cx="262.33321125000055" cy="151.81659891443496" stroke-width="1" stroke="black" fill="blue"/><circle r="3" cx="114.63495250000017" cy="158.44161999999994" stroke-width="1" stroke="black" fill="red"/><circle r="3" cx="243.03371249999975" cy="206.44801" stroke-width="1" stroke="black" fill="red"/><circle r="2" cx="221.3083199999998" cy="159.67177000000004" stroke-width="1" stroke="black" fill="blue"/><circle r="3" cx="174.09631250000058" cy="77.20449999999994" stroke-width="1" stroke="black" fill="blue"/><circle r="2" cx="199.65887749999956" cy="42.20602000000008" stroke-width="1" stroke="black" fill="green"/><circle r="2" cx="273.4221999999995" cy="355.5775" stroke-width="1" stroke="black" fill="blue"/><circle r="2" cx="184.4844524999994" cy="204.71946999999994" stroke-width="1" stroke="black" fill="red"/><circle r="2" cx="199.56145500000008" cy="42.808329999999955" stroke-width="1" stroke="black" fill="blue"/><circle r="3" cx="242.04968749999978" cy="200.86093000000005" stroke-width="1" stroke="black" fill="red"/><circle r="2" cx="203.7120000000005" cy="291.82120000000003" stroke-width="1" stroke="black" fill="orange"/><circle r="3" cx="158.7486375000001" cy="119.79414999999995" stroke-width="1" stroke="black" fill="blue"/><circle r="2" cx="319.66192500000045" cy="186.48127" stroke-width="1" stroke="black" fill="blue"/><circle r="2" cx="250.73070250000012" cy="422.87215000000003" stroke-width="1" stroke="black" fill="blue"/><circle r="2" cx="258.6230450000004" cy="373.42891000000003" stroke-width="1" stroke="black" fill="blue"/><circle r="3" cx="247.39515000000017" cy="216.78340000000003" stroke-width="1" stroke="black" fill="green"/><circle r="2" cx="199.45564999999965" cy="41.73849999999993" stroke-width="1" stroke="black" fill="green"/><circle r="5" cx="184.29889999999955" cy="205.18960000000004" stroke-width="1" stroke="black" fill="red"/><circle r="2" cx="282.7600249999996" cy="113.71780000000001" stroke-width="1" stroke="black" fill="blue"/><circle r="4" cx="190.10473499999955" cy="-12.016219999999976" stroke-width="1" stroke="black" fill="red"/><circle r="3" cx="309.9981449999999" cy="192.49563999999998" stroke-width="1" stroke="black" fill="orange"/><circle r="3" cx="226.81095000000033" cy="72.2518" stroke-width="1" stroke="black" fill="orange"/><circle r="2" cx="297.9164774999999" cy="236.11813751072287" stroke-width="1" stroke="black" fill="blue"/><circle r="3" cx="245.44821375000015" cy="205.8720880401529" stroke-width="1" stroke="black" fill="blue"/><circle r="6" cx="243.5120749999994" cy="206.899" stroke-width="1" stroke="black" fill="red"/><circle r="6" cx="249.9781499999994" cy="188.7448" stroke-width="1" stroke="black" fill="red"/><circle r="4" cx="244.56632749999937" cy="203.42045240525698" stroke-width="1" stroke="black" fill="red"/><circle r="2" cx="271.57015749999994" cy="289.2277" stroke-width="1" stroke="black" fill="green"/><circle r="2" cx="318.21677499999964" cy="188.5885" stroke-width="1" stroke="black" fill="orange"/><circle r="2" cx="110.93553999999949" cy="218.07664" stroke-width="1" stroke="black" fill="blue"/><circle r="2" cx="99.67986374999975" cy="196.52138636080787" stroke-width="1" stroke="black" fill="green"/><circle r="2" cx="96.58749999999986" cy="266.3665" stroke-width="1" stroke="black" fill="blue"/><circle r="4" cx="260.8177200000002" cy="150.92101000000002" stroke-width="1" stroke="black" fill="red"/><circle r="3" cx="243.7343250000003" cy="235.16410000000002" stroke-width="1" stroke="black" fill="green"/><circle r="2" cx="269.6274999999995" cy="162.71799999999996" stroke-width="1" stroke="black" fill="blue"/><circle r="2" cx="268.3860500000003" cy="268.63480000000004" stroke-width="1" stroke="black" fill="green"/><circle r="2" cx="290.52337499999953" cy="165.89409999999998" stroke-width="1" stroke="black" fill="blue"/><circle r="3" cx="290.86532500000044" cy="218.3098" stroke-width="1" stroke="black" fill="blue"/><circle r="2" cx="259.2984750000001" cy="335.06919999999997" stroke-width="1" stroke="black" fill="blue"/><circle r="3" cx="246.6312750000002" cy="223.9891" stroke-width="1" stroke="black" fill="orange"/><circle r="3" cx="158.38139999999964" cy="120.57219999999995" stroke-width="1" stroke="black" fill="red"/><circle r="3" cx="276.7368750000005" cy="303.97659999999996" stroke-width="1" stroke="black" fill="orange"/><circle r="3" cx="114.28840000000025" cy="187.4434" stroke-width="1" stroke="black"/><circle r="2" cx="252.1517375000002" cy="370.72105" stroke-width="1" stroke="black" fill="blue"/><circle r="2" cx="190.06830000000025" cy="-11.990000000000009" stroke-width="1" stroke="black" fill="green"/><circle r="3" cx="241.28729999999973" cy="200.73130000000003" stroke-width="1" stroke="black" fill="red"/><circle r="4" cx="110.78367500000041" cy="219.622" stroke-width="1" stroke="black" fill="red"/><circle r="2" cx="298.01754874999915" cy="199.81674207929842" stroke-width="1" stroke="black" fill="blue"/><circle r="2" cx="180.70807499999955" cy="372.1165" stroke-width="1" stroke="black" fill="blue"/><circle r="3" cx="242.29671750000057" cy="166.01404000000002" stroke-width="1" stroke="black" fill="blue"/><circle r="4" cx="243.1570000000006" cy="206.83354000000003" stroke-width="1" stroke="black" fill="red"/><circle r="3" cx="192.11737499999958" cy="196.8052" stroke-width="1" stroke="black" fill="blue"/><circle r="2" cx="257.8549699999998" cy="237.93336999999997" stroke-width="1" stroke="black" fill="green"/><circle r="2" cx="245.7382500000005" cy="137.524" stroke-width="1" stroke="black" fill="orange"/><circle r="3" cx="110.34985000000023" cy="217.62478" stroke-width="1" stroke="black" fill="blue"/><circle r="3" cx="300.4673300000002" cy="244.23778" stroke-width="1" stroke="black" fill="blue"/><circle r="5" cx="109.67266999999998" cy="220.49491" stroke-width="1" stroke="black" fill="red"/><circle r="2" cx="168.2596249999994" cy="262.8808" stroke-width="1" stroke="black" fill="blue"/><circle r="3" cx="250.94866499999944" cy="423.4153" stroke-width="1" stroke="black" fill="green"/><circle r="4" cx="218.6503499999999" cy="80.1943" stroke-width="1" stroke="black" fill="red"/><circle r="2" cx="229.90040000000033" cy="196.85830000000004" stroke-width="1" stroke="black" fill="green"/><circle r="2" cx="253.14529999999974" cy="40.769499999999994" stroke-width="1" stroke="black" fill="red"/><circle r="2" cx="299.0297225000004" cy="216.70045" stroke-width="1" stroke="black" fill="blue"/><circle r="4" cx="298.9547087499998" cy="216.6652815164208" stroke-width="1" stroke="black" fill="red"/><circle r="2" cx="212.84350000000052" cy="244.084" stroke-width="1" stroke="black" fill="orange"/><circle r="2" cx="153.96326249999942" cy="130.66311999999994" stroke-width="1" stroke="black" fill="blue"/><circle r="4" cx="334.20757500000025" cy="173.54919999999993" stroke-width="1" stroke="black" fill="red"/><circle r="2" cx="272.5047275000002" cy="155.44869999999992" stroke-width="1" stroke="black" fill="blue"/><circle r="3" cx="275" cy="210.00100000000003" stroke-width="1" stroke="black" fill="orange"/><circle r="2" cx="205.54138000000017" cy="206.93857000000003" stroke-width="1" stroke="black" fill="green"/><circle r="3" cx="169.29859999999996" cy="103.5349" stroke-width="1" stroke="black" fill="red"/><circle r="3" cx="197.50579999999968" cy="145.27929999999992" stroke-width="1" stroke="black" fill="red"/><circle r="2" cx="177.35733249999993" cy="39.854979999999955" stroke-width="1" stroke="black" fill="blue"/><circle r="2" cx="184.17454499999997" cy="205.31844999999998" stroke-width="1" stroke="black" fill="blue"/><circle r="3" cx="158.49585000000042" cy="183.94510000000002" stroke-width="1" stroke="black" fill="orange"/><circle r="6" cx="245.4503749999999" cy="214.14459999999997" stroke-width="1" stroke="black" fill="red"/><circle r="4" cx="165.8488249999994" cy="268.6408" stroke-width="1" stroke="black" fill="red"/><circle r="4" cx="217.89590749999945" cy="89.37462999999991" stroke-width="1" stroke="black" fill="red"/><circle r="4" cx="242.6879999999997" cy="206.99440000000004" stroke-width="1" stroke="black" fill="red"/><circle r="2" cx="217.85642749999943" cy="156.38356" stroke-width="1" stroke="black" fill="blue"/><circle r="2" cx="262.1908925000005" cy="248.8096" stroke-width="1" stroke="black" fill="green"/><circle r="2" cx="322.51386500000035" cy="90.0856" stroke-width="1" stroke="black" fill="green"/></svg>